<?xml version="1.0" encoding="utf-8"?><!-- Uploaded to: SVG Repo, www.svgrepo.com, Generator: SVG Repo Mixer Tools -->
<svg fill="#000000" width="800px" height="800px" viewBox="0 0 24 24" id="football-ball" data-name="Flat Color" xmlns="http://www.w3.org/2000/svg" class="icon flat-color"><circle id="primary" cx="12" cy="12" r="10" style="fill: rgb(0, 0, 0);"></circle><path id="secondary" d="M15.15,11.8l4.55-1.2L22,12.27A2.44,2.44,0,0,0,22,12a9.93,9.93,0,0,0-2.07-6.09L19,8.7,14.49,9.91,13,8.76V4.28l2.34-1.7a9.91,9.91,0,0,0-6.68,0L11,4.28V8.76L9.51,9.91,5,8.7l-.9-2.79A9.93,9.93,0,0,0,2,12a2.44,2.44,0,0,0,0,.27L4.3,10.6l4.55,1.2.6,2-2.54,3.9H3.76a10,10,0,0,0,5.4,3.93l-.8-2.48L11,15H13l2.67,4.11-.81,2.48a10.11,10.11,0,0,0,5.41-3.93H17.09l-2.54-3.9Z" style="fill: rgb(44, 169, 188);"></path></svg>