<!DOCTYPE svg PUBLIC "-//W3C//DTD SVG 1.1//EN" "http://www.w3.org/Graphics/SVG/1.1/DTD/svg11.dtd">
<!-- Uploaded to: SVG Repo, www.svgrepo.com, Transformed by: SVG Repo Mixer Tools -->
<svg width="64px" height="64px" viewBox="0 -0.5 21 21" version="1.1" xmlns="http://www.w3.org/2000/svg" xmlns:xlink="http://www.w3.org/1999/xlink" fill="#000000">
<g id="SVGRepo_bgCarrier" stroke-width="0"/>
<g id="SVGRepo_tracerCarrier" stroke-linecap="round" stroke-linejoin="round"/>
<g id="SVGRepo_iconCarrier"> <title>stats [#ffffff]</title> <desc>Created with Sketch.</desc> <defs> </defs> <g id="Page-1" stroke="none" stroke-width="1" fill="none" fill-rule="evenodd"> <g id="Dribbble-Light-Preview" transform="translate(-59.000000, -840.000000)" fill="#ffffff"> <g id="icons" transform="translate(56.000000, 160.000000)"> <path d="M12.45,698 L14.55,698 L14.55,682 L12.45,682 L12.45,698 Z M10.35,700 L16.65,700 L16.65,680 L10.35,680 L10.35,700 Z M5.1,698 L7.2,698 L7.2,686 L5.1,686 L5.1,698 Z M3,700 L9.3,700 L9.3,684 L3,684 L3,700 Z M19.8,698 L21.9,698 L21.9,692 L19.8,692 L19.8,698 Z M17.7,700 L24,700 L24,690 L17.7,690 L17.7,700 Z" id="stats-[#ffffff]"> </path> </g> </g> </g> </g>
</svg>